<?xml version="1.0" encoding="utf-8"?>
<!-- Generator: Adobe Illustrator 18.0.0, SVG Export Plug-In . SVG Version: 6.00 Build 0)  -->
<!DOCTYPE svg PUBLIC "-//W3C//DTD SVG 1.1//EN" "http://www.w3.org/Graphics/SVG/1.1/DTD/svg11.dtd">
<svg version="1.1" id="Layer_1" xmlns="http://www.w3.org/2000/svg" xmlns:xlink="http://www.w3.org/1999/xlink" x="0px" y="0px"
	 width="216px" height="216px" viewBox="0 0 216 216" enable-background="new 0 0 216 216" xml:space="preserve">
<g display="none">
	<rect display="inline" fill="#2B589B" width="216" height="216"/>
	<text transform="matrix(1 0 0 1 17.5791 194.7949)" display="inline" fill="#FFFFFF" font-family="'Segoe'" font-size="22">Word Online</text>
	<g display="inline">
		<path fill="#FFFFFF" d="M152.5,56.6h-33.7v10.2h27.5v4.1h-27.5V76h27.5v4h-27.5v5.1h27.5v4.1h-27.5v5.1h27.5v4.1h-27.5v5.1h27.5
			v4.1h-27.5v5.1h27.5v4.1h-27.5v9.2h33.7c1.1,0,1.9-0.8,1.9-1.9V58.7C154.4,57.6,153.5,56.6,152.5,56.6z"/>
		<path fill="#FFFFFF" d="M63.9,55.6v71.2l52.9,9.2V46.5L63.9,55.6z M101.4,107.8l-7-0.4L89.9,86c-0.1-0.3-0.1-0.5-0.2-0.8
			c0-0.3-0.1-0.6-0.1-0.9s-0.1-0.6-0.1-1c0-0.3,0-0.7-0.1-1h-0.1c0,0.4-0.1,0.7-0.1,1.1c0,0.3-0.1,0.7-0.1,1S89,85,89,85.3
			s-0.1,0.5-0.1,0.8l-4.4,20.8l-6.4-0.4l-6.2-31.1l5.8-0.4l3.4,21c0,0.2,0.1,0.5,0.1,0.7c0,0.3,0.1,0.5,0.1,0.8s0.1,0.6,0.1,1
			c0,0.3,0,0.7,0.1,1.1h0.1c0-0.3,0-0.6,0.1-0.9c0-0.3,0.1-0.6,0.1-0.9s0.1-0.6,0.1-0.9c0.1-0.3,0.1-0.6,0.2-1l4.6-21.5l6.4-0.4
			l4.5,22.5c0,0.2,0.1,0.4,0.1,0.7c0,0.3,0.1,0.5,0.1,0.8s0.1,0.6,0.1,1s0.1,0.7,0.1,1.1h0.1c0-0.3,0-0.7,0.1-1c0-0.3,0.1-0.6,0.1-1
			c0-0.3,0.1-0.6,0.1-0.9s0.1-0.6,0.2-0.9l3.9-22.9l6.7-0.4L101.4,107.8z"/>
	</g>
</g>
<g display="none">
	<g display="inline">
		<rect fill="#21BBEE" width="216.3" height="214.9"/>
		<text transform="matrix(0.9907 0 0 1 16.8979 194.4219)" fill="#FFFFFF" font-family="'Segoe'" font-size="22.2067">Windows</text>
	</g>
	<g display="inline">
		<polygon fill="#FFFFFF" points="103,93.4 156.2,93.4 156.2,46.1 103,53.6 		"/>
		<polygon fill="#FFFFFF" points="100.8,93.4 100.8,53.9 60.1,59.6 60.1,93.4 		"/>
		<polygon fill="#FFFFFF" points="100.8,95.6 60.1,95.6 60.1,129.5 100.8,135.2 		"/>
		<polygon fill="#FFFFFF" points="103,95.6 103,135.5 156.2,143 156.2,95.6 		"/>
	</g>
</g>
<g display="none">
	<rect display="inline" fill="#14A2DD" width="216" height="216"/>
	<text transform="matrix(1 0 0 1 21.1326 195.0566)" display="inline" fill="#FFFFFF" font-family="'Segoe'" font-size="22">Skype</text>
	<g display="inline">
		<path fill="#FFFFFF" d="M155.1,99.4c0.5-2.7,0.7-5.4,0.7-8.2c0-26.1-21.2-47.3-47.3-47.3c-2.8,0-5.5,0.2-8.2,0.7
			c-4.1-2.4-8.9-3.7-13.9-3.7c-15.5,0-28.1,12.6-28.1,28.1c0,5.1,1.3,9.8,3.7,13.9c-0.5,2.7-0.7,5.4-0.7,8.2
			c0,26.1,21.2,47.3,47.3,47.3c2.8,0,5.5-0.2,8.2-0.7c4.1,2.4,8.9,3.7,13.9,3.7c15.5,0,28.1-12.6,28.1-28.1
			C158.8,108.2,157.5,103.5,155.1,99.4"/>
		<path fill="#14A2DD" d="M108.8,121.4c-16.8,0-24.5-8.5-24.5-14.7c0-3.2,2.5-5.4,5.7-5.4c7.2,0,5.3,10.7,18.7,10.7
			c6.9,0,10.9-4.1,10.9-8c0-2.3-1.3-4.9-5.9-6l-14.9-3.8c-12-3-14.1-9.7-14.1-15.9c0-12.8,11.8-17.4,23-17.4
			c10.3,0,22.6,5.7,22.6,13.4c0,3.3-2.8,5.1-6,5.1c-6.1,0-5.1-8.6-17.5-8.6c-6.1,0-9.4,2.9-9.4,6.9s4.7,5.4,8.9,6.3l11,2.5
			c12.1,2.7,15.3,9.8,15.3,16.5C132.8,113.4,124.7,121.4,108.8,121.4"/>
	</g>
</g>
<g display="none">
	<rect display="inline" fill="#DC5B26" width="216" height="216"/>
	<text transform="matrix(1 0 0 1 19.731 194.4248)" display="inline" fill="#FFFFFF" font-family="'Segoe'" font-size="22.1023">PowerPoint Online</text>
	<g display="inline">
		<path fill="#FFFFFF" d="M155.1,58.2h-34.8v65.4h34.8c1.3,0,2.1-0.8,2.1-2.1V60.3C157.2,59,156.4,58.2,155.1,58.2z"/>
		<g>
			<rect x="119.2" y="109.9" fill="#DC5B26" width="28.5" height="4.2"/>
		</g>
		<g>
			<rect x="119.2" y="100.4" fill="#DC5B26" width="28.5" height="4.2"/>
		</g>
		<path fill="#DC5B26" d="M126,68.8c-7,0-11.2,5.7-11.2,12.7s6.4,12.4,13.4,12.4c7,0,13.4-1.9,13.4-12.9H126V68.8z"/>
		<path fill="#DC5B26" d="M129,66.7V78h14.6C143.6,73,138,66.7,129,66.7z"/>
		<polygon fill="#FFFFFF" points="118.2,44.5 118.2,137.3 63.3,127.9 63.3,54 		"/>
		<path fill="#DC5B26" d="M87.5,89.7V79.1l2.7-0.3c0.9,0,1.7,0.1,2.4,0.3c0.7,0.2,1.3,0.6,1.8,1c0.5,0.5,0.8,1.1,1.1,1.8
			c0.2,0.7,0.4,1.6,0.4,2.5c0,1-0.1,1.8-0.4,2.6c-0.2,0.7-0.6,1.4-1.1,1.9s-1.1,0.9-1.8,1.1c-0.7,0.2-1.5,0.4-2.4,0.4L88,90
			L87.5,89.7z M91.4,72.4L81.2,73v35.5l6.3,0.5V96.4l3.3,0.2c1,0,1.9,0,2.7-0.2c0.9-0.1,1.7-0.3,2.5-0.6c0.8-0.3,1.5-0.7,2.2-1.1
			c0.7-0.5,1.3-1,1.9-1.6s1.1-1.2,1.5-1.9c0.4-0.7,0.8-1.4,1.1-2.2c0.3-0.8,0.5-1.6,0.6-2.4c0.1-0.9,0.2-1.8,0.2-2.7
			c0-2-0.3-3.8-0.8-5.3s-1.3-2.7-2.3-3.7s-2.3-1.6-3.8-2.1C95.1,72.4,93.4,72.2,91.4,72.4"/>
	</g>
</g>
<g display="none">
	<rect display="inline" fill="#D24927" width="216" height="216"/>
	<text transform="matrix(1 0 0 1 14.7678 194.7705)" display="inline" fill="#FFFFFF" font-family="'Segoe'" font-size="22">People</text>
	<g id="people_icon_19_" display="inline">
		<g>
			<path fill="#FFFFFF" d="M113.1,68.9c1.5,4.9,4.4,8.5,8.9,10.3c1.2,0.5,2.5,0.6,4,0.8c0.5,0,1,0,1.6-0.1c2.5-0.4,4.1-0.8,5.9-1.9
				c4.1-2.5,6.7-6.1,8-11.3c0.7-2.5,0.8-6.3,0.1-8.9c-1.7-6.6-6.1-12.3-14.5-12.1c-0.4,0-0.9,0.1-1.3,0.1c-1,0.2-1.9,0.4-2.8,0.7
				c-3.9,1.5-6.9,4.5-8.6,8.2c-0.7,1.6-1.3,3.2-1.7,5.1c-0.4,1.7-0.5,4.2-0.2,6.1C112.7,67,112.8,67.9,113.1,68.9z M74,84.9
				c1.7,1,5.4,2.3,8.3,1.8c1-0.2,2-0.3,2.9-0.6c5.2-1.6,8.2-5.4,10.1-10.4c1.4-3.5,1.2-9,0.1-12.6c-2.1-6.7-7.5-13.2-16.4-13
				c-0.6,0.1-1.2,0.1-1.9,0.2c-1.1,0.2-2.1,0.5-3,0.9c-4.6,2-7.6,5.9-9.1,11c-0.3,1-0.4,2.2-0.6,3.3c-0.4,2.4,0,5.3,0.6,7.2
				C66.6,78.5,69.5,82.3,74,84.9z M157.6,107.6c-0.4-2.4-0.4-4.8-0.8-7.1c-1-5.7-1.2-11.9-3.9-15.8c-1.2-1.7-2.9-2.6-4.9-3.5
				c-1.6-0.7-3.1-1.4-4.9-1.9c-0.5-0.1-1.1-0.3-1.7-0.2c-1.7,0.3-2.6,1.7-3.8,2.5c-2.3,1.7-4.8,3-8.1,3.9c-1.1,0.3-2.7,0.6-4.2,0.4
				c-1-0.1-1.9-0.2-2.8-0.4c-2.6-0.6-4.7-1.8-6.7-3.1c-0.8-0.6-1.5-1.1-2.3-1.7c-0.7-0.6-1.3-1.3-2.4-1.5c-1.2-0.2-2.5,0.4-3.3,0.7
				c-1.5,0.6-2.9,1.2-4.3,1.8c-0.7,0.4-1.3,0.8-2,1.1l-0.1,0.1c1.4,0.3,2.8,1.2,4,1.7c3.4,1.5,6.1,3.5,8,6.5
				c1.6,2.5,2.4,5.7,3.2,9.1c0.2,1.4,0.5,2.9,0.7,4.3c0.6,3.2,1,6.6,1.4,9.9h39.4C158.1,112,157.9,109.7,157.6,107.6z M112.9,114
				c-0.6-3.2-0.6-6.5-1.2-9.6c-0.9-4.6-1.3-8.8-3.6-11.9c-1.2-1.6-3.1-2.6-5.1-3.5c-1.6-0.7-3.2-1.5-5.1-2c-0.5-0.1-1.2-0.4-2-0.2
				c-1.5,0.3-2.1,1.1-3.1,1.8c-0.8,0.6-1.5,1.1-2.3,1.7c-1.9,1.2-3.9,2.2-6.4,2.8c-0.8,0.2-1.7,0.2-2.6,0.3
				c-1.2,0.2-2.7-0.1-3.6-0.4c-3.2-0.8-5.6-2.2-7.9-3.9c-1.2-0.9-2.1-2.2-3.9-2.5c-0.7-0.1-1.4,0.1-2,0.2c-1.9,0.5-3.4,1.2-5,1.9
				c-2.1,0.9-4,2-5.3,3.8c-2.3,3.3-2.8,8.2-3.7,13c-0.1,1.2-0.3,2.4-0.4,3.7c-0.4,2.2-0.4,4.5-0.7,6.8c-0.1,1.1-0.2,2.1-0.3,3.2
				c-0.2,1.3-0.3,2.7-0.3,4h65.3c0-1.7-0.1-3.5-0.4-5.2C113.2,116.8,113.1,115.4,112.9,114z"/>
		</g>
	</g>
</g>
<g>
	<rect fill="#813B7D" width="216" height="216"/>
	<g enable-background="new    ">
		<path fill="#FFFFFF" d="M35.3,186.5c0,2.5-0.7,4.5-2,6c-1.3,1.4-3.1,2.2-5.3,2.2c-2.2,0-4-0.7-5.3-2.2c-1.3-1.4-1.9-3.3-1.9-5.6
			c0-2.4,0.6-4.4,1.9-5.8c1.3-1.5,3.2-2.3,5.6-2.3c2.1,0,3.8,0.7,5.1,2.1S35.3,184.2,35.3,186.5z M33.4,186.8c0-2.1-0.5-3.6-1.5-4.8
			c-0.9-1.1-2.2-1.6-3.9-1.6c-1.6,0-2.9,0.6-3.9,1.8c-1,1.2-1.5,2.7-1.5,4.6c0,1.9,0.5,3.5,1.5,4.6c1,1.1,2.2,1.7,3.8,1.7
			c1.7,0,3-0.5,3.9-1.6C32.9,190.3,33.4,188.8,33.4,186.8z"/>
		<path fill="#FFFFFF" d="M47.2,194.4h-1.8v-6.3c0-2.3-0.9-3.5-2.6-3.5c-0.9,0-1.6,0.3-2.2,1c-0.6,0.7-0.9,1.5-0.9,2.5v6.3h-1.8v-11
			h1.8v1.8h0c0.8-1.4,2-2.1,3.6-2.1c1.2,0,2.1,0.4,2.8,1.2s1,1.9,1,3.4V194.4z"/>
		<path fill="#FFFFFF" d="M59.3,189.4h-7.8c0,1.2,0.4,2.2,1,2.8c0.6,0.7,1.5,1,2.6,1c1.2,0,2.4-0.4,3.4-1.2v1.6
			c-1,0.7-2.2,1.1-3.8,1.1c-1.5,0-2.7-0.5-3.6-1.4c-0.9-1-1.4-2.4-1.4-4.3c0-1.8,0.5-3.2,1.5-4.3c1-1,2.1-1.5,3.5-1.5
			c1.5,0,2.6,0.5,3.4,1.5c0.7,0.9,1.1,2.2,1.1,3.8V189.4z M57.5,187.9c0-1-0.3-1.8-0.7-2.3c-0.5-0.6-1.2-0.9-2-0.9
			c-0.8,0-1.5,0.3-2.1,0.9c-0.6,0.6-0.9,1.4-1.1,2.3H57.5z"/>
		<path fill="#FFFFFF" d="M74.5,194.4h-2.2l-7.9-12.3c-0.2-0.3-0.3-0.6-0.5-1h-0.1c0.1,0.3,0.1,1,0.1,2.1v11.1h-1.8V179h2.3
			l7.7,12.1c0.3,0.5,0.5,0.8,0.6,1h0c-0.1-0.4-0.1-1.2-0.1-2.3V179h1.8V194.4z"/>
		<path fill="#FFFFFF" d="M88.3,188.9c0,1.8-0.5,3.2-1.5,4.2s-2.3,1.6-4,1.6c-1.7,0-3-0.5-3.9-1.6c-0.9-1-1.4-2.4-1.4-4
			c0-1.9,0.5-3.4,1.6-4.4c1-1,2.3-1.5,4-1.5c1.6,0,2.9,0.5,3.8,1.5C87.8,185.7,88.3,187.1,88.3,188.9z M86.5,188.9
			c0-1.4-0.3-2.5-1-3.2c-0.6-0.7-1.5-1.1-2.6-1.1c-1.1,0-2,0.4-2.6,1.1c-0.7,0.8-1,1.9-1,3.3c0,1.3,0.3,2.3,1,3.1
			c0.7,0.7,1.6,1.1,2.7,1.1c1.2,0,2-0.4,2.7-1.1C86.2,191.3,86.5,190.3,86.5,188.9z"/>
		<path fill="#FFFFFF" d="M96.1,194.3c-0.4,0.2-1,0.4-1.7,0.4c-1.9,0-2.9-1.1-2.9-3.2v-6.5h-1.9v-1.5h1.9v-2.7
			c0.6-0.2,1.1-0.4,1.8-0.6v3.3h2.8v1.5h-2.8v6.2c0,0.7,0.1,1.3,0.4,1.6c0.3,0.3,0.7,0.5,1.3,0.5c0.4,0,0.8-0.1,1.1-0.4V194.3z"/>
		<path fill="#FFFFFF" d="M107.2,189.4h-7.8c0,1.2,0.4,2.2,1,2.8c0.6,0.7,1.5,1,2.6,1c1.2,0,2.4-0.4,3.4-1.2v1.6
			c-1,0.7-2.2,1.1-3.8,1.1c-1.5,0-2.7-0.5-3.6-1.4c-0.9-1-1.4-2.4-1.4-4.3c0-1.8,0.5-3.2,1.5-4.3c1-1,2.1-1.5,3.5-1.5
			c1.5,0,2.6,0.5,3.4,1.5c0.7,0.9,1.1,2.2,1.1,3.8V189.4z M105.4,187.9c0-1-0.3-1.8-0.7-2.3c-0.5-0.6-1.2-0.9-2-0.9
			c-0.8,0-1.5,0.3-2.1,0.9c-0.6,0.6-0.9,1.4-1.1,2.3H105.4z"/>
		<path fill="#FFFFFF" d="M129.6,186.5c0,2.5-0.7,4.5-2,6c-1.3,1.4-3.1,2.2-5.3,2.2c-2.2,0-4-0.7-5.3-2.2c-1.3-1.4-1.9-3.3-1.9-5.6
			c0-2.4,0.6-4.4,1.9-5.8c1.3-1.5,3.2-2.3,5.6-2.3c2.1,0,3.8,0.7,5.1,2.1S129.6,184.2,129.6,186.5z M127.7,186.8
			c0-2.1-0.5-3.6-1.5-4.8c-0.9-1.1-2.2-1.6-3.9-1.6c-1.6,0-2.9,0.6-3.9,1.8s-1.5,2.7-1.5,4.6c0,1.9,0.5,3.5,1.5,4.6
			c1,1.1,2.2,1.7,3.8,1.7c1.7,0,3-0.5,3.9-1.6C127.2,190.3,127.7,188.8,127.7,186.8z"/>
		<path fill="#FFFFFF" d="M141.5,194.4h-1.8v-6.3c0-2.3-0.9-3.5-2.6-3.5c-0.9,0-1.6,0.3-2.2,1c-0.6,0.7-0.9,1.5-0.9,2.5v6.3h-1.8
			v-11h1.8v1.8h0c0.8-1.4,2-2.1,3.6-2.1c1.2,0,2.1,0.4,2.8,1.2c0.6,0.8,1,1.9,1,3.4V194.4z"/>
		<path fill="#FFFFFF" d="M146.6,194.4h-1.8v-16.3h1.8V194.4z"/>
		<path fill="#FFFFFF" d="M152.3,179.5c0,0.3-0.1,0.6-0.3,0.8c-0.2,0.2-0.5,0.3-0.8,0.3c-0.3,0-0.6-0.1-0.8-0.3
			c-0.2-0.2-0.3-0.5-0.3-0.8c0-0.3,0.1-0.6,0.3-0.8c0.2-0.2,0.5-0.3,0.8-0.3c0.3,0,0.6,0.1,0.8,0.3
			C152.1,178.9,152.3,179.2,152.3,179.5z M152,194.4h-1.8v-11h1.8V194.4z"/>
		<path fill="#FFFFFF" d="M164.7,194.4h-1.8v-6.3c0-2.3-0.9-3.5-2.6-3.5c-0.9,0-1.6,0.3-2.2,1c-0.6,0.7-0.9,1.5-0.9,2.5v6.3h-1.8
			v-11h1.8v1.8h0c0.8-1.4,2-2.1,3.6-2.1c1.2,0,2.1,0.4,2.8,1.2c0.6,0.8,1,1.9,1,3.4V194.4z"/>
		<path fill="#FFFFFF" d="M176.7,189.4H169c0,1.2,0.4,2.2,1,2.8s1.5,1,2.6,1c1.2,0,2.4-0.4,3.4-1.2v1.6c-1,0.7-2.2,1.1-3.8,1.1
			c-1.5,0-2.7-0.5-3.6-1.4c-0.9-1-1.4-2.4-1.4-4.3c0-1.8,0.5-3.2,1.5-4.3c1-1,2.1-1.5,3.5-1.5c1.5,0,2.6,0.5,3.4,1.5
			c0.7,0.9,1.1,2.2,1.1,3.8V189.4z M174.9,187.9c0-1-0.3-1.8-0.7-2.3c-0.5-0.6-1.2-0.9-2-0.9c-0.8,0-1.5,0.3-2.1,0.9
			c-0.6,0.6-0.9,1.4-1.1,2.3H174.9z"/>
	</g>
	<g>
		<g>
			<path fill="#FFFFFF" d="M157.1,81.6h-3.2v19.5h3.2c1.1,0,2.2-1,2.2-2.2V83.8C159.3,82.7,158.2,81.6,157.1,81.6z"/>
			<path fill="#FFFFFF" d="M157.1,103.3h-3.2v19.5h3.2c1.1,0,2.2-1,2.2-2.2v-15.1C159.3,104.3,158.2,103.3,157.1,103.3z"/>
			<path fill="#FFFFFF" d="M157.1,60h-5.4v-3.3c0-1.1-1.4-2.1-1.4-2.1h-28.9v10.8H143v4.3h-21.6v5.4H143v4.3h-21.6v5.4H143v4.3
				h-21.6v5.4H143v4.3h-21.6v5.4H143v4.3h-21.6v5.4H143v4.3h-21.6v9.7h28.1c1.1,0,2.2-1,2.2-2.1V79.5h5.4c1.1,0,2.2-1,2.2-2.2V62.2
				C159.3,61,158.2,60,157.1,60z"/>
		</g>
		<path fill="#FFFFFF" d="M63.1,53.3v76.1l56.2,9.5V43.8L63.1,53.3z M105.2,109.7l-7.2-0.4L85.6,86.4c-0.2-0.3-0.3-0.6-0.5-0.9
			c-0.1-0.3-0.3-0.5-0.4-0.8c-0.1-0.2-0.3-0.5-0.4-0.7s-0.7-0.4-0.7-0.6l0,0c0,0.3-0.1,0.7-0.1,1.1s0,0.8,0,1.3s0,0.5,0,1.1
			s0,2.1,0,2.7v18.9l-5.4-0.3V73.5l6.9-0.3l12,21.7c0.1,0.2,0.2,0.4,0.3,0.6c0.1,0.2,0.2,0.5,0.4,0.7c0.1,0.3,0.3,0.5,0.4,0.8
			s0.3,0.9,0.5,0.9h0.1c0,0-0.1-0.5-0.1-0.8s-0.1-0.3-0.1-0.7c0-0.4,0.1-0.8,0.1-1.3s0.1-2.1,0.1-2.7V72.5l6.5-0.4
			C105.2,72.1,105.2,109.7,105.2,109.7z"/>
	</g>
</g>
</svg>
