<?xml version="1.0" encoding="utf-8"?>
<!-- Generator: Adobe Illustrator 18.0.0, SVG Export Plug-In . SVG Version: 6.00 Build 0)  -->
<!DOCTYPE svg PUBLIC "-//W3C//DTD SVG 1.1//EN" "http://www.w3.org/Graphics/SVG/1.1/DTD/svg11.dtd">
<svg version="1.1" id="Layer_1" xmlns="http://www.w3.org/2000/svg" xmlns:xlink="http://www.w3.org/1999/xlink" x="0px" y="0px"
	 width="216px" height="216px" viewBox="0 0 216 216" enable-background="new 0 0 216 216" xml:space="preserve">
<g>
	<rect fill="#2B589B" width="216" height="216"/>
	<g enable-background="new    ">
		<path fill="#FFFFFF" d="M37.9,179.4l-4.4,15.4h-2.1l-3.2-11.3c-0.1-0.5-0.2-1-0.2-1.6h0c-0.1,0.5-0.1,1-0.3,1.5l-3.2,11.3h-2.1
			l-4.5-15.4h2l3.3,11.8c0.1,0.5,0.2,1,0.3,1.5h0c0-0.4,0.1-0.9,0.3-1.5l3.4-11.8h1.7l3.3,11.9c0.1,0.4,0.2,0.9,0.3,1.4h0
			c0-0.4,0.1-0.9,0.3-1.5l3.1-11.9H37.9z"/>
		<path fill="#FFFFFF" d="M49.4,189.3c0,1.8-0.5,3.2-1.5,4.2s-2.3,1.6-4,1.6c-1.7,0-3-0.5-3.9-1.6c-0.9-1-1.4-2.4-1.4-4
			c0-1.9,0.5-3.4,1.6-4.4c1-1,2.3-1.5,4-1.5c1.6,0,2.9,0.5,3.8,1.5C48.9,186.1,49.4,187.5,49.4,189.3z M47.6,189.3
			c0-1.4-0.3-2.5-1-3.2c-0.6-0.7-1.5-1.1-2.6-1.1c-1.1,0-2,0.4-2.6,1.1c-0.7,0.8-1,1.9-1,3.3c0,1.3,0.3,2.3,1,3.1
			c0.7,0.7,1.6,1.1,2.7,1.1c1.2,0,2-0.4,2.7-1.1C47.3,191.7,47.6,190.7,47.6,189.3z"/>
		<path fill="#FFFFFF" d="M57.8,185.6c-0.3-0.2-0.8-0.4-1.3-0.4c-0.7,0-1.3,0.3-1.8,1c-0.6,0.7-0.8,1.7-0.8,3v5.6h-1.8v-11h1.8v2.3
			h0c0.3-0.8,0.7-1.4,1.2-1.9c0.5-0.4,1.1-0.6,1.7-0.6c0.5,0,0.8,0,1.1,0.2V185.6z"/>
		<path fill="#FFFFFF" d="M68.8,194.8H67v-1.9h0c-0.8,1.4-2.1,2.1-3.8,2.1c-1.4,0-2.4-0.5-3.3-1.4c-0.9-1-1.3-2.3-1.3-4.1
			c0-1.8,0.5-3.3,1.4-4.4c0.9-1.1,2.1-1.6,3.7-1.6c1.5,0,2.6,0.6,3.3,1.8h0v-6.8h1.8V194.8z M67,189.8v-1.6c0-0.9-0.3-1.6-0.9-2.2
			c-0.6-0.6-1.3-0.9-2.3-0.9c-1.1,0-1.9,0.4-2.5,1.2c-0.6,0.8-0.9,1.9-0.9,3.3c0,1.3,0.3,2.4,1,3.1c0.6,0.7,1.4,1,2.3,1
			c1,0,1.8-0.4,2.4-1.1C66.7,191.8,67,190.9,67,189.8z"/>
		<path fill="#FFFFFF" d="M92.2,186.9c0,2.5-0.7,4.5-2,6c-1.3,1.4-3.1,2.2-5.3,2.2c-2.2,0-4-0.7-5.3-2.2c-1.3-1.4-1.9-3.3-1.9-5.6
			c0-2.4,0.6-4.4,1.9-5.8c1.3-1.5,3.2-2.3,5.6-2.3c2.1,0,3.8,0.7,5.1,2.1S92.2,184.6,92.2,186.9z M90.3,187.1c0-2.1-0.5-3.6-1.5-4.8
			c-0.9-1.1-2.2-1.6-3.9-1.6c-1.6,0-2.9,0.6-3.9,1.8c-1,1.2-1.5,2.7-1.5,4.6c0,1.9,0.5,3.5,1.5,4.6c1,1.1,2.2,1.7,3.8,1.7
			c1.7,0,3-0.5,3.9-1.6C89.8,190.7,90.3,189.2,90.3,187.1z"/>
		<path fill="#FFFFFF" d="M104.1,194.8h-1.8v-6.3c0-2.3-0.9-3.5-2.6-3.5c-0.9,0-1.6,0.3-2.2,1c-0.6,0.7-0.9,1.5-0.9,2.5v6.3H95v-11
			h1.8v1.8h0c0.8-1.4,2-2.1,3.6-2.1c1.2,0,2.1,0.4,2.8,1.2s1,1.9,1,3.4V194.8z"/>
		<path fill="#FFFFFF" d="M109.2,194.8h-1.8v-16.3h1.8V194.8z"/>
		<path fill="#FFFFFF" d="M114.8,179.9c0,0.3-0.1,0.6-0.3,0.8s-0.5,0.3-0.8,0.3c-0.3,0-0.6-0.1-0.8-0.3s-0.3-0.5-0.3-0.8
			c0-0.3,0.1-0.6,0.3-0.8c0.2-0.2,0.5-0.3,0.8-0.3c0.3,0,0.6,0.1,0.8,0.3C114.7,179.3,114.8,179.5,114.8,179.9z M114.5,194.8h-1.8
			v-11h1.8V194.8z"/>
		<path fill="#FFFFFF" d="M127.2,194.8h-1.8v-6.3c0-2.3-0.9-3.5-2.6-3.5c-0.9,0-1.6,0.3-2.2,1s-0.9,1.5-0.9,2.5v6.3h-1.8v-11h1.8
			v1.8h0c0.8-1.4,2-2.1,3.6-2.1c1.2,0,2.1,0.4,2.8,1.2s1,1.9,1,3.4V194.8z"/>
		<path fill="#FFFFFF" d="M139.3,189.7h-7.8c0,1.2,0.4,2.2,1,2.8c0.6,0.7,1.5,1,2.6,1c1.2,0,2.4-0.4,3.4-1.2v1.6
			c-1,0.7-2.2,1.1-3.8,1.1c-1.5,0-2.7-0.5-3.6-1.4c-0.9-1-1.4-2.4-1.4-4.3c0-1.8,0.5-3.2,1.5-4.3c1-1,2.1-1.5,3.5-1.5
			c1.5,0,2.6,0.5,3.4,1.5c0.7,0.9,1.1,2.2,1.1,3.8V189.7z M137.5,188.2c0-1-0.3-1.8-0.7-2.3c-0.5-0.6-1.2-0.9-2-0.9
			c-0.8,0-1.5,0.3-2.1,0.9c-0.6,0.6-0.9,1.4-1.1,2.3H137.5z"/>
	</g>
	<g>
		<path fill="#FFFFFF" d="M152.5,56.6h-33.7v10.2h27.5v4.1h-27.5V76h27.5v4h-27.5v5.1h27.5v4.1h-27.5v5.1h27.5v4.1h-27.5v5.1h27.5
			v4.1h-27.5v5.1h27.5v4.1h-27.5v9.2h33.7c1.1,0,1.9-0.8,1.9-1.9V58.7C154.4,57.6,153.5,56.6,152.5,56.6z"/>
		<path fill="#FFFFFF" d="M63.9,55.6v71.2l52.9,9.2V46.5L63.9,55.6z M101.4,107.8l-7-0.4L89.9,86c-0.1-0.3-0.1-0.5-0.2-0.8
			c0-0.3-0.1-0.6-0.1-0.9s-0.1-0.6-0.1-1c0-0.3,0-0.7-0.1-1h-0.1c0,0.4-0.1,0.7-0.1,1.1c0,0.3-0.1,0.7-0.1,1S89,85,89,85.3
			s-0.1,0.5-0.1,0.8l-4.4,20.8l-6.4-0.4l-6.2-31.1l5.8-0.4l3.4,21c0,0.2,0.1,0.5,0.1,0.7c0,0.3,0.1,0.5,0.1,0.8s0.1,0.6,0.1,1
			c0,0.3,0,0.7,0.1,1.1h0.1c0-0.3,0-0.6,0.1-0.9c0-0.3,0.1-0.6,0.1-0.9s0.1-0.6,0.1-0.9c0.1-0.3,0.1-0.6,0.2-1l4.6-21.5l6.4-0.4
			l4.5,22.5c0,0.2,0.1,0.4,0.1,0.7c0,0.3,0.1,0.5,0.1,0.8s0.1,0.6,0.1,1s0.1,0.7,0.1,1.1h0.1c0-0.3,0-0.7,0.1-1c0-0.3,0.1-0.6,0.1-1
			c0-0.3,0.1-0.6,0.1-0.9s0.1-0.6,0.2-0.9l3.9-22.9l6.7-0.4L101.4,107.8z"/>
	</g>
</g>
<g display="none">
	<g display="inline">
		<rect fill="#21BBEE" width="216.3" height="214.9"/>
		<text transform="matrix(0.9907 0 0 1 16.8979 194.4219)" fill="#FFFFFF" font-family="'Segoe'" font-size="22.2067">Windows</text>
	</g>
	<g display="inline">
		<polygon fill="#FFFFFF" points="103,93.4 156.2,93.4 156.2,46.1 103,53.6 		"/>
		<polygon fill="#FFFFFF" points="100.8,93.4 100.8,53.9 60.1,59.6 60.1,93.4 		"/>
		<polygon fill="#FFFFFF" points="100.8,95.6 60.1,95.6 60.1,129.5 100.8,135.2 		"/>
		<polygon fill="#FFFFFF" points="103,95.6 103,135.5 156.2,143 156.2,95.6 		"/>
	</g>
</g>
<g display="none">
	<rect display="inline" fill="#14A2DD" width="216" height="216"/>
	<text transform="matrix(1 0 0 1 21.1326 195.0566)" display="inline" fill="#FFFFFF" font-family="'Segoe'" font-size="22">Skype</text>
	<g display="inline">
		<path fill="#FFFFFF" d="M155.1,99.4c0.5-2.7,0.7-5.4,0.7-8.2c0-26.1-21.2-47.3-47.3-47.3c-2.8,0-5.5,0.2-8.2,0.7
			c-4.1-2.4-8.9-3.7-13.9-3.7c-15.5,0-28.1,12.6-28.1,28.1c0,5.1,1.3,9.8,3.7,13.9c-0.5,2.7-0.7,5.4-0.7,8.2
			c0,26.1,21.2,47.3,47.3,47.3c2.8,0,5.5-0.2,8.2-0.7c4.1,2.4,8.9,3.7,13.9,3.7c15.5,0,28.1-12.6,28.1-28.1
			C158.8,108.2,157.5,103.5,155.1,99.4"/>
		<path fill="#14A2DD" d="M108.8,121.4c-16.8,0-24.5-8.5-24.5-14.7c0-3.2,2.5-5.4,5.7-5.4c7.2,0,5.3,10.7,18.7,10.7
			c6.9,0,10.9-4.1,10.9-8c0-2.3-1.3-4.9-5.9-6l-14.9-3.8c-12-3-14.1-9.7-14.1-15.9c0-12.8,11.8-17.4,23-17.4
			c10.3,0,22.6,5.7,22.6,13.4c0,3.3-2.8,5.1-6,5.1c-6.1,0-5.1-8.6-17.5-8.6c-6.1,0-9.4,2.9-9.4,6.9s4.7,5.4,8.9,6.3l11,2.5
			c12.1,2.7,15.3,9.8,15.3,16.5C132.8,113.4,124.7,121.4,108.8,121.4"/>
	</g>
</g>
<g display="none">
	<rect display="inline" fill="#DC5B26" width="216" height="216"/>
	<text transform="matrix(1 0 0 1 19.731 194.4248)" display="inline" fill="#FFFFFF" font-family="'Segoe'" font-size="22.1023">PowerPoint Online</text>
	<g display="inline">
		<path fill="#FFFFFF" d="M155.1,58.2h-34.8v65.4h34.8c1.3,0,2.1-0.8,2.1-2.1V60.3C157.2,59,156.4,58.2,155.1,58.2z"/>
		<g>
			<rect x="119.2" y="109.9" fill="#DC5B26" width="28.5" height="4.2"/>
		</g>
		<g>
			<rect x="119.2" y="100.4" fill="#DC5B26" width="28.5" height="4.2"/>
		</g>
		<path fill="#DC5B26" d="M126,68.8c-7,0-11.2,5.7-11.2,12.7s6.4,12.4,13.4,12.4c7,0,13.4-1.9,13.4-12.9H126V68.8z"/>
		<path fill="#DC5B26" d="M129,66.7V78h14.6C143.6,73,138,66.7,129,66.7z"/>
		<polygon fill="#FFFFFF" points="118.2,44.5 118.2,137.3 63.3,127.9 63.3,54 		"/>
		<path fill="#DC5B26" d="M87.5,89.7V79.1l2.7-0.3c0.9,0,1.7,0.1,2.4,0.3c0.7,0.2,1.3,0.6,1.8,1c0.5,0.5,0.8,1.1,1.1,1.8
			c0.2,0.7,0.4,1.6,0.4,2.5c0,1-0.1,1.8-0.4,2.6c-0.2,0.7-0.6,1.4-1.1,1.9s-1.1,0.9-1.8,1.1c-0.7,0.2-1.5,0.4-2.4,0.4L88,90
			L87.5,89.7z M91.4,72.4L81.2,73v35.5l6.3,0.5V96.4l3.3,0.2c1,0,1.9,0,2.7-0.2c0.9-0.1,1.7-0.3,2.5-0.6c0.8-0.3,1.5-0.7,2.2-1.1
			c0.7-0.5,1.3-1,1.9-1.6s1.1-1.2,1.5-1.9c0.4-0.7,0.8-1.4,1.1-2.2c0.3-0.8,0.5-1.6,0.6-2.4c0.1-0.9,0.2-1.8,0.2-2.7
			c0-2-0.3-3.8-0.8-5.3s-1.3-2.7-2.3-3.7s-2.3-1.6-3.8-2.1C95.1,72.4,93.4,72.2,91.4,72.4"/>
	</g>
</g>
</svg>
