<?xml version="1.0" encoding="utf-8"?>
<!-- Generator: Adobe Illustrator 16.0.0, SVG Export Plug-In . SVG Version: 6.00 Build 0)  -->
<!DOCTYPE svg PUBLIC "-//W3C//DTD SVG 1.1//EN" "http://www.w3.org/Graphics/SVG/1.1/DTD/svg11.dtd">
<svg version="1.1" id="Layer_1" xmlns="http://www.w3.org/2000/svg" xmlns:xlink="http://www.w3.org/1999/xlink" x="0px" y="0px"
	 width="216px" height="216px" viewBox="0 0 216 216" enable-background="new 0 0 216 216" xml:space="preserve">
<g display="none">
	<rect display="inline" fill="#2B589B" width="216" height="216"/>
	<text transform="matrix(1 0 0 1 17.5791 194.7949)" display="inline" fill="#FFFFFF" font-family="'Segoe'" font-size="22">Word Online</text>
	<g display="inline">
		<path fill="#FFFFFF" d="M152.5,56.6h-33.7v10.2h27.5v4.1h-27.5V76h27.5v4h-27.5v5.1h27.5v4.1h-27.5v5.1h27.5v4.1h-27.5v5.1h27.5
			v4.1h-27.5v5.1h27.5v4.1h-27.5v9.2h33.7c1.1,0,1.9-0.8,1.9-1.9V58.7C154.4,57.6,153.5,56.6,152.5,56.6z"/>
		<path fill="#FFFFFF" d="M63.9,55.6v71.2l52.9,9.2V46.5L63.9,55.6z M101.4,107.8l-7-0.4L89.9,86c-0.1-0.3-0.1-0.5-0.2-0.8
			c0-0.3-0.1-0.6-0.1-0.9c0-0.3-0.1-0.6-0.1-1c0-0.3,0-0.7-0.1-1h-0.1c0,0.4-0.1,0.7-0.1,1.1c0,0.3-0.1,0.7-0.1,1
			c0,0.3-0.1,0.6-0.1,0.9c0,0.3-0.1,0.5-0.1,0.8l-4.4,20.8l-6.4-0.4l-6.2-31.1l5.8-0.4l3.4,21c0,0.2,0.1,0.5,0.1,0.7
			c0,0.3,0.1,0.5,0.1,0.8s0.1,0.6,0.1,1c0,0.3,0,0.7,0.1,1.1h0.1c0-0.3,0-0.6,0.1-0.9c0-0.3,0.1-0.6,0.1-0.9c0-0.3,0.1-0.6,0.1-0.9
			c0.1-0.3,0.1-0.6,0.2-1l4.6-21.5l6.4-0.4l4.5,22.5c0,0.2,0.1,0.4,0.1,0.7c0,0.3,0.1,0.5,0.1,0.8s0.1,0.6,0.1,1s0.1,0.7,0.1,1.1
			h0.1c0-0.3,0-0.7,0.1-1c0-0.3,0.1-0.6,0.1-1c0-0.3,0.1-0.6,0.1-0.9c0-0.3,0.1-0.6,0.2-0.9l3.9-22.9l6.7-0.4L101.4,107.8z"/>
	</g>
</g>
<g display="none">
	<g display="inline">
		<rect fill="#21BBEE" width="216.3" height="214.9"/>
		<text transform="matrix(0.9907 0 0 1 16.8984 194.4219)" fill="#FFFFFF" font-family="'Segoe'" font-size="22.2067">Windows</text>
	</g>
	<g display="inline">
		<polygon fill="#FFFFFF" points="103,93.4 156.2,93.4 156.2,46.1 103,53.6 		"/>
		<polygon fill="#FFFFFF" points="100.8,93.4 100.8,53.9 60.1,59.6 60.1,93.4 		"/>
		<polygon fill="#FFFFFF" points="100.8,95.6 60.1,95.6 60.1,129.5 100.8,135.2 		"/>
		<polygon fill="#FFFFFF" points="103,95.6 103,135.5 156.2,143 156.2,95.6 		"/>
	</g>
</g>
<g display="none">
	<rect display="inline" fill="#14A2DD" width="216" height="216"/>
	<text transform="matrix(1 0 0 1 21.1328 195.0566)" display="inline" fill="#FFFFFF" font-family="'Segoe'" font-size="22">Skype</text>
	<g display="inline">
		<path fill="#FFFFFF" d="M155.1,99.4c0.5-2.7,0.7-5.4,0.7-8.2c0-26.1-21.2-47.3-47.3-47.3c-2.8,0-5.5,0.2-8.2,0.7
			c-4.1-2.4-8.9-3.7-13.9-3.7c-15.5,0-28.1,12.6-28.1,28.1c0,5.1,1.3,9.8,3.7,13.9c-0.5,2.7-0.7,5.4-0.7,8.2
			c0,26.1,21.2,47.3,47.3,47.3c2.801,0,5.5-0.2,8.2-0.7c4.101,2.399,8.9,3.7,13.9,3.7c15.5,0,28.1-12.601,28.1-28.101
			C158.8,108.2,157.5,103.5,155.1,99.4"/>
		<path fill="#14A2DD" d="M108.8,121.4c-16.8,0-24.5-8.5-24.5-14.7c0-3.2,2.5-5.4,5.7-5.4c7.2,0,5.3,10.7,18.7,10.7
			c6.899,0,10.899-4.1,10.899-8c0-2.3-1.3-4.9-5.899-6l-14.9-3.8c-12-3-14.1-9.7-14.1-15.9c0-12.8,11.8-17.4,23-17.4
			c10.3,0,22.6,5.7,22.6,13.4c0,3.3-2.8,5.1-6,5.1c-6.1,0-5.1-8.6-17.5-8.6c-6.1,0-9.4,2.9-9.4,6.9s4.7,5.4,8.9,6.3l11,2.5
			c12.101,2.7,15.3,9.8,15.3,16.5C132.8,113.4,124.7,121.4,108.8,121.4"/>
	</g>
</g>
<g display="none">
	<rect display="inline" fill="#DC5B26" width="216" height="216"/>
	<text transform="matrix(1 0 0 1 19.731 194.4248)" display="inline" fill="#FFFFFF" font-family="'Segoe'" font-size="22.1023">PowerPoint Online</text>
	<g display="inline">
		<path fill="#FFFFFF" d="M155.1,58.2h-34.8V123.6h34.8c1.301,0,2.101-0.8,2.101-2.1V60.3C157.2,59,156.4,58.2,155.1,58.2z"/>
		<g>
			<rect x="119.2" y="109.9" fill="#DC5B26" width="28.5" height="4.199"/>
		</g>
		<g>
			<rect x="119.2" y="100.4" fill="#DC5B26" width="28.5" height="4.2"/>
		</g>
		<path fill="#DC5B26" d="M126,68.8c-7,0-11.2,5.7-11.2,12.7s6.4,12.4,13.4,12.4S141.6,92,141.6,81H126V68.8z"/>
		<path fill="#DC5B26" d="M129,66.7V78h14.6C143.6,73,138,66.7,129,66.7z"/>
		<polygon fill="#FFFFFF" points="118.2,44.5 118.2,137.3 63.3,127.9 63.3,54 		"/>
		<path fill="#DC5B26" d="M87.5,89.7V79.1l2.7-0.3c0.9,0,1.7,0.1,2.4,0.3c0.7,0.2,1.3,0.6,1.8,1c0.5,0.5,0.8,1.1,1.1,1.8
			c0.2,0.7,0.4,1.6,0.4,2.5c0,1-0.1,1.8-0.4,2.6c-0.2,0.7-0.6,1.4-1.1,1.9s-1.1,0.9-1.8,1.1c-0.7,0.2-1.5,0.4-2.4,0.4L88,90
			L87.5,89.7z M91.4,72.4L81.2,73v35.5l6.3,0.5V96.4l3.3,0.2c1,0,1.9,0,2.7-0.2c0.9-0.1,1.7-0.3,2.5-0.6c0.8-0.3,1.5-0.7,2.2-1.1
			c0.7-0.5,1.3-1,1.9-1.6s1.1-1.2,1.5-1.9c0.4-0.7,0.8-1.4,1.1-2.2c0.3-0.8,0.5-1.6,0.6-2.4c0.1-0.9,0.2-1.8,0.2-2.7
			c0-2-0.3-3.8-0.8-5.3s-1.3-2.7-2.3-3.7s-2.3-1.6-3.8-2.1C95.1,72.4,93.4,72.2,91.4,72.4"/>
	</g>
</g>
<g display="none">
	<rect display="inline" fill="#D24927" width="216" height="216"/>
	<text transform="matrix(1 0 0 1 14.7676 194.7705)" display="inline" fill="#FFFFFF" font-family="'Segoe'" font-size="22">People</text>
	<g id="people_icon_19_" display="inline">
		<g>
			<path fill="#FFFFFF" d="M113.1,68.9c1.5,4.9,4.4,8.5,8.9,10.3c1.2,0.5,2.5,0.6,4,0.8c0.5,0,1,0,1.6-0.1
				c2.5-0.4,4.101-0.8,5.9-1.9c4.1-2.5,6.7-6.1,8-11.3c0.7-2.5,0.8-6.3,0.1-8.9c-1.699-6.6-6.1-12.3-14.5-12.1
				c-0.399,0-0.899,0.1-1.3,0.1c-1,0.2-1.899,0.4-2.8,0.7c-3.9,1.5-6.9,4.5-8.6,8.2c-0.7,1.6-1.301,3.2-1.7,5.1
				c-0.4,1.7-0.5,4.2-0.2,6.1C112.7,67,112.8,67.9,113.1,68.9z M74,84.9c1.7,1,5.4,2.3,8.3,1.8c1-0.2,2-0.3,2.9-0.6
				c5.2-1.6,8.2-5.4,10.1-10.4c1.4-3.5,1.2-9,0.1-12.6c-2.1-6.7-7.5-13.2-16.4-13c-0.6,0.1-1.2,0.1-1.9,0.2c-1.1,0.2-2.1,0.5-3,0.9
				c-4.6,2-7.6,5.9-9.1,11c-0.3,1-0.4,2.2-0.6,3.3c-0.4,2.4,0,5.3,0.6,7.2C66.6,78.5,69.5,82.3,74,84.9z M157.6,107.6
				c-0.399-2.4-0.399-4.8-0.8-7.1c-1-5.7-1.2-11.9-3.899-15.8c-1.2-1.7-2.9-2.6-4.9-3.5c-1.6-0.7-3.1-1.4-4.9-1.9
				c-0.5-0.1-1.1-0.3-1.699-0.2c-1.7,0.3-2.601,1.7-3.801,2.5c-2.3,1.7-4.8,3-8.1,3.9c-1.1,0.3-2.7,0.6-4.2,0.4
				c-1-0.1-1.899-0.2-2.8-0.4c-2.6-0.6-4.7-1.8-6.7-3.1c-0.8-0.6-1.5-1.1-2.3-1.7c-0.7-0.6-1.3-1.3-2.4-1.5
				c-1.199-0.2-2.5,0.4-3.3,0.7c-1.5,0.6-2.9,1.2-4.3,1.8c-0.7,0.4-1.3,0.8-2,1.1l-0.1,0.1c1.4,0.3,2.8,1.2,4,1.7
				c3.4,1.5,6.1,3.5,8,6.5c1.6,2.5,2.399,5.7,3.199,9.1c0.2,1.4,0.5,2.9,0.7,4.3c0.601,3.2,1,6.6,1.4,9.9H158.1
				C158.1,112,157.9,109.7,157.6,107.6z M112.9,114c-0.601-3.2-0.601-6.5-1.2-9.6c-0.9-4.6-1.3-8.8-3.6-11.9
				c-1.2-1.6-3.1-2.6-5.1-3.5c-1.6-0.7-3.2-1.5-5.1-2c-0.5-0.1-1.2-0.4-2-0.2c-1.5,0.3-2.1,1.1-3.1,1.8c-0.8,0.6-1.5,1.1-2.3,1.7
				c-1.9,1.2-3.9,2.2-6.4,2.8c-0.8,0.2-1.7,0.2-2.6,0.3c-1.2,0.2-2.7-0.1-3.6-0.4c-3.2-0.8-5.6-2.2-7.9-3.9
				c-1.2-0.9-2.1-2.2-3.9-2.5c-0.7-0.1-1.4,0.1-2,0.2c-1.9,0.5-3.4,1.2-5,1.9c-2.1,0.9-4,2-5.3,3.8c-2.3,3.3-2.8,8.2-3.7,13
				c-0.1,1.2-0.3,2.4-0.4,3.7c-0.4,2.2-0.4,4.5-0.7,6.8c-0.1,1.1-0.2,2.1-0.3,3.2c-0.2,1.3-0.3,2.7-0.3,4h65.3
				c0-1.7-0.101-3.5-0.4-5.2C113.2,116.8,113.1,115.4,112.9,114z"/>
		</g>
	</g>
</g>
<g display="none">
	<rect display="inline" fill="#813B7D" width="216" height="216"/>
	<text transform="matrix(1 0 0 1 19.6851 194.416)" display="inline" fill="#FFFFFF" font-family="'Segoe'" font-size="22">OneNote Online</text>
	<g display="inline">
		<g>
			<path fill="#FFFFFF" d="M157.1,81.6H153.9v19.5h3.199c1.101,0,2.2-1,2.2-2.2V83.8C159.3,82.7,158.2,81.6,157.1,81.6z"/>
			<path fill="#FFFFFF" d="M157.1,103.3H153.9v19.5h3.199c1.101,0,2.2-1,2.2-2.2v-15.1C159.3,104.3,158.2,103.3,157.1,103.3z"/>
			<path fill="#FFFFFF" d="M157.1,60H151.7v-3.3c0-1.1-1.4-2.1-1.4-2.1H121.4v10.8H143v4.3h-21.6v5.4H143v4.3h-21.6v5.4H143v4.3
				h-21.6v5.4H143v4.3h-21.6v5.4H143v4.3h-21.6v5.4H143v4.3h-21.6v9.7h28.1c1.1,0,2.2-1,2.2-2.101V79.5h5.399c1.101,0,2.2-1,2.2-2.2
				V62.2C159.3,61,158.2,60,157.1,60z"/>
		</g>
		<path fill="#FFFFFF" d="M63.1,53.3V129.4l56.2,9.5V43.8L63.1,53.3z M105.2,109.7l-7.2-0.4L85.6,86.4c-0.2-0.3-0.3-0.6-0.5-0.9
			c-0.1-0.3-0.3-0.5-0.4-0.8c-0.1-0.2-0.3-0.5-0.4-0.7c-0.1-0.2-0.7-0.4-0.7-0.6l0,0c0,0.3-0.1,0.7-0.1,1.1s0,0.8,0,1.3s0,0.5,0,1.1
			s0,2.1,0,2.7v18.9l-5.4-0.3V73.5l6.9-0.3l12,21.7c0.1,0.2,0.2,0.4,0.3,0.6c0.1,0.2,0.2,0.5,0.4,0.7c0.1,0.3,0.3,0.5,0.4,0.8
			s0.3,0.9,0.5,0.9h0.1c0,0-0.1-0.5-0.1-0.8c0-0.3-0.1-0.3-0.1-0.7s0.1-0.8,0.1-1.3s0.1-2.1,0.1-2.7V72.5l6.5-0.4V109.7z"/>
	</g>
</g>
<g>
	<rect fill="#55419A" width="216" height="216.2"/>
	<rect fill="#55419A" width="216" height="216.2"/>
	<rect fill="#55419A" width="216" height="216.2"/>
	<g enable-background="new    ">
		<path display="none" fill="#FFFFFF" d="M30,195.3c-1.1,0.601-2.6,0.9-4.3,0.9c-2.2,0-4-0.7-5.3-2.2c-1.3-1.4-1.9-3.3-1.9-5.6
			c0-2.5,0.8-4.601,2.3-6.101s3.3-2.2,5.5-2.2c1.5,0,2.7,0.2,3.6,0.601v1.899c-1.1-0.6-2.3-0.899-3.7-0.899c-1.7,0-3.2,0.6-4.2,1.7
			c-1.1,1.199-1.7,2.8-1.7,4.8c0,1.899,0.5,3.399,1.6,4.6c1,1.101,2.4,1.601,4,1.601s2.9-0.301,4-1v1.899H30z"/>
		<path display="none" fill="#FFFFFF" d="M40.8,195.9H39v-1.7l0,0c-0.8,1.3-1.9,2-3.4,2c-1.1,0-2-0.3-2.6-0.9
			c-0.6-0.6-0.9-1.3-0.9-2.3c0-2.1,1.2-3.3,3.6-3.6l3.3-0.5c0-1.9-0.8-2.801-2.3-2.801c-1.3,0-2.5,0.4-3.6,1.301V185.6
			c0.3-0.199,0.9-0.5,1.6-0.699c0.8-0.2,1.5-0.4,2.2-0.4c2.6,0,3.9,1.4,3.9,4.1V195.9z M39,190.4l-2.7,0.399c-1,0.101-1.6,0.4-2,0.7
			c-0.3,0.3-0.5,0.8-0.5,1.4c0,0.5,0.2,1,0.6,1.3s0.9,0.5,1.5,0.5c0.9,0,1.6-0.3,2.2-0.9c0.6-0.6,0.8-1.399,0.8-2.3v-1.1H39z"/>
		<path display="none" fill="#FFFFFF" d="M45.8,195.9H44V179.6h1.8V195.9z"/>
		<path display="none" fill="#FFFFFF" d="M58.2,190.9h-7.8c0,1.199,0.4,2.199,1,2.8c0.6,0.6,1.5,1,2.6,1c1.2,0,2.4-0.4,3.4-1.2v1.6
			c-1,0.7-2.2,1.101-3.8,1.101c-1.5,0-2.7-0.5-3.6-1.4c-0.9-1-1.4-2.399-1.4-4.3c0-1.8,0.5-3.2,1.5-4.3c1-1,2.1-1.5,3.5-1.5
			c1.5,0,2.6,0.5,3.4,1.5c0.7,0.899,1.1,2.2,1.1,3.8v0.9H58.2z M56.4,189.4c0-1-0.3-1.801-0.7-2.301c-0.5-0.6-1.2-0.899-2-0.899
			c-0.8,0-1.5,0.3-2.1,0.899c-0.6,0.601-0.9,1.4-1.1,2.301H56.4z"/>
		<path display="none" fill="#FFFFFF" d="M69.9,195.9h-1.8V189.6c0-2.3-0.9-3.5-2.6-3.5c-0.9,0-1.6,0.301-2.2,1
			c-0.6,0.7-0.9,1.5-0.9,2.5v6.301h-1.8v-11h1.8v1.8l0,0c0.8-1.4,2-2.101,3.6-2.101c1.2,0,2.1,0.4,2.8,1.2c0.7,0.8,1,1.9,1,3.4v6.7
			H69.9z"/>
		<path display="none" fill="#FFFFFF" d="M82.6,195.9h-1.8V194l0,0c-0.8,1.4-2.1,2.1-3.8,2.1c-1.4,0-2.4-0.5-3.3-1.399
			c-0.9-1-1.3-2.3-1.3-4.101c0-1.8,0.5-3.3,1.4-4.399c0.9-1.101,2.1-1.601,3.7-1.601c1.5,0,2.6,0.601,3.3,1.801l0,0V179.6h1.8V195.9
			z M80.8,190.9V189.3c0-0.899-0.3-1.6-0.9-2.2c-0.6-0.6-1.4-0.899-2.3-0.899c-1.1,0-1.9,0.399-2.5,1.2c-0.6,0.8-0.9,1.899-0.9,3.3
			c0,1.3,0.3,2.399,1,3.1c0.6,0.7,1.4,1,2.3,1c1,0,1.8-0.399,2.4-1.1C80.5,192.9,80.8,192,80.8,190.9z"/>
		<path display="none" fill="#FFFFFF" d="M94,195.9h-1.8v-1.7l0,0c-0.8,1.3-1.9,2-3.4,2c-1.1,0-2-0.3-2.6-0.9
			c-0.6-0.6-0.9-1.3-0.9-2.3c0-2.1,1.2-3.3,3.6-3.6l3.3-0.5c0-1.9-0.8-2.801-2.3-2.801c-1.3,0-2.5,0.4-3.6,1.301V185.6
			c0.3-0.199,0.9-0.5,1.6-0.699c0.8-0.2,1.5-0.4,2.2-0.4c2.6,0,3.9,1.4,3.9,4.1V195.9z M92.2,190.4l-2.7,0.399
			c-1,0.101-1.6,0.4-2,0.7c-0.3,0.3-0.5,0.8-0.5,1.4c0,0.5,0.2,1,0.6,1.3s0.9,0.5,1.5,0.5c0.9,0,1.6-0.3,2.2-0.9
			c0.6-0.6,0.8-1.399,0.8-2.3v-1.1H92.2z"/>
		<path display="none" fill="#FFFFFF" d="M103.1,186.7c-0.3-0.2-0.8-0.4-1.3-0.4c-0.7,0-1.3,0.3-1.8,1c-0.6,0.7-0.8,1.7-0.8,3v5.601
			h-1.8v-11h1.8v2.3l0,0c0.3-0.8,0.7-1.4,1.2-1.9c0.5-0.399,1.1-0.6,1.7-0.6c0.5,0,0.8,0.1,1.1,0.2v1.8H103.1z"/>
	</g>
	<g display="none">
		
			<text transform="matrix(1 0 0 1 17.167 196.2002)" display="inline" fill="#FFFFFF" font-family="'MicrosoftYaHei'" font-size="23">日历</text>
	</g>
	<g>
		<g>
			<path fill="#FFFFFF" d="M20.671,178.558h16.015v20.395h-1.909v-1.596H22.58v1.596h-1.909V178.558z M22.58,180.241v6.717h12.196
				v-6.717H22.58z M22.58,188.642v7.076h12.196v-7.076H22.58z"/>
			<path fill="#FFFFFF" d="M44.423,186.261c-0.015,3.31-0.232,5.848-0.651,7.615c-0.434,1.826-1.258,3.608-2.471,5.346
				c-0.375-0.51-0.824-1.019-1.348-1.527c1.018-1.468,1.7-2.943,2.044-4.426c0.344-1.438,0.517-3.639,0.517-6.604v-8.131H62.1v1.73
				H44.423V186.261z M45.658,185.116h4.885c0.038-1.355,0.056-2.719,0.056-4.088h1.887c-0.015,1.369-0.041,2.732-0.079,4.088h8.097
				c-0.18,3.982-0.352,7.27-0.517,9.859c-0.24,2.291-1.4,3.459-3.481,3.504c-1.123,0-2.441-0.037-3.953-0.111
				c-0.075-0.569-0.187-1.243-0.337-2.021c1.482,0.164,2.792,0.246,3.931,0.246c1.198-0.015,1.879-0.703,2.044-2.066
				c0.165-2.156,0.299-4.717,0.404-7.682h-6.244c-0.127,3.04-0.599,5.331-1.415,6.873c-1.093,2.052-3.04,3.894-5.84,5.525
				c-0.419-0.494-0.861-1.003-1.325-1.527c2.755-1.691,4.552-3.331,5.391-4.918c0.779-1.393,1.22-3.377,1.325-5.953h-4.829V185.116z
				"/>
		</g>
	</g>
	<g>
		<rect x="117.5" y="98.6" fill="#FFFFFF" width="12.1" height="12.2"/>
		<rect x="117.5" y="114.8" fill="#FFFFFF" width="12.1" height="12.2"/>
		<rect x="101.2" y="66.2" fill="#FFFFFF" width="12.1" height="12.2"/>
		<rect x="101.2" y="82.4" fill="#FFFFFF" width="12.1" height="12.2"/>
		<rect x="117.5" y="82.4" fill="#FFFFFF" width="12.1" height="12.2"/>
		<rect x="101.2" y="98.6" fill="#FFFFFF" width="12.1" height="12.2"/>
		<rect x="133.6" y="82.4" fill="#FFFFFF" width="12.101" height="12.2"/>
		<rect x="133.6" y="66.2" fill="#FFFFFF" width="12.101" height="12.2"/>
		<rect x="133.6" y="98.6" fill="#FFFFFF" width="12.101" height="12.2"/>
		<rect x="117.5" y="66.2" fill="#FFFFFF" width="12.1" height="12.2"/>
		<rect x="101.2" y="114.8" fill="#FFFFFF" width="12.1" height="12.2"/>
		<rect x="68.8" y="82.4" fill="#FFFFFF" width="12.1" height="12.2"/>
		<rect x="68.8" y="98.6" fill="#FFFFFF" width="12.1" height="12.2"/>
		<path fill="#FFFFFF" d="M156.6,50.8c0-1.9-1.6-3.5-3.5-3.5H61.5c-1.9,0-3.5,1.6-3.5,3.5V133c0,1.9,1.6,3.5,3.5,3.5h91.6
			c1.9,0,3.5-1.6,3.5-3.5V50.8z M149.9,129.7H64.8V62.1H149.9V129.7z"/>
		<rect x="68.8" y="114.8" fill="#FFFFFF" width="12.1" height="12.2"/>
		<rect x="85.1" y="66.2" fill="#FFFFFF" width="12.1" height="12.2"/>
		<rect x="85.1" y="82.4" fill="#FFFFFF" width="12.1" height="12.2"/>
		<rect x="85.1" y="114.8" fill="#FFFFFF" width="12.1" height="12.2"/>
		<rect x="85.1" y="98.6" fill="#FFFFFF" width="12.1" height="12.2"/>
	</g>
</g>
</svg>
