<?xml version="1.0" encoding="utf-8"?>
<!-- Generator: Adobe Illustrator 17.1.0, SVG Export Plug-In . SVG Version: 6.00 Build 0)  -->
<!DOCTYPE svg PUBLIC "-//W3C//DTD SVG 1.1//EN" "http://www.w3.org/Graphics/SVG/1.1/DTD/svg11.dtd">
<svg version="1.1" id="Layer_1" xmlns="http://www.w3.org/2000/svg" xmlns:xlink="http://www.w3.org/1999/xlink" x="0px" y="0px"
	 width="214px" height="214px" viewBox="0 0 214 214" enable-background="new 0 0 214 214" xml:space="preserve">
<rect fill="#2272B9" width="214" height="214"/>
<g>
	<path fill="#FFFFFF" d="M32.9,185.5c0,2.4-0.6,4.2-1.9,5.6c-1.2,1.4-2.9,2-5,2c-2.1,0-3.7-0.7-5-2.1c-1.2-1.3-1.8-3.1-1.8-5.2
		c0-2.3,0.6-4.1,1.8-5.5c1.3-1.4,3-2.2,5.2-2.2c2,0,3.6,0.7,4.8,2S32.9,183.3,32.9,185.5z M31.1,185.7c0-1.9-0.5-3.4-1.4-4.5
		c-0.9-1-2.1-1.5-3.6-1.5c-1.5,0-2.7,0.5-3.7,1.7c-1,1.1-1.4,2.5-1.4,4.3c0,1.8,0.5,3.2,1.4,4.3c0.9,1.1,2.1,1.6,3.6,1.6
		c1.6,0,2.8-0.5,3.7-1.5C30.7,189.1,31.1,187.6,31.1,185.7z"/>
	<path fill="#FFFFFF" d="M43.9,192.9h-1.7v-1.6h0c-0.7,1.3-1.7,1.9-3.2,1.9c-2.5,0-3.7-1.5-3.7-4.4v-6.2h1.7v5.9
		c0,2.2,0.8,3.3,2.5,3.3c0.8,0,1.5-0.3,2-0.9c0.5-0.6,0.8-1.4,0.8-2.3v-5.9h1.7V192.9z"/>
	<path fill="#FFFFFF" d="M52,192.8c-0.4,0.2-0.9,0.3-1.6,0.3c-1.8,0-2.7-1-2.7-3V184H46v-1.4h1.8v-2.5c0.5-0.2,1.1-0.3,1.7-0.5v3.1
		H52v1.4h-2.6v5.8c0,0.7,0.1,1.2,0.4,1.5c0.2,0.3,0.6,0.4,1.2,0.4c0.4,0,0.8-0.1,1.1-0.3V192.8z"/>
	<path fill="#FFFFFF" d="M55.8,192.9h-1.7v-15.3h1.7V192.9z"/>
	<path fill="#FFFFFF" d="M68.6,187.7c0,1.6-0.5,3-1.4,4c-0.9,1-2.2,1.5-3.7,1.5c-1.6,0-2.8-0.5-3.7-1.5c-0.9-1-1.3-2.2-1.3-3.8
		c0-1.8,0.5-3.2,1.5-4.2c0.9-0.9,2.2-1.4,3.7-1.4c1.5,0,2.7,0.5,3.6,1.4S68.6,186,68.6,187.7z M66.9,187.8c0-1.3-0.3-2.3-0.9-3
		c-0.6-0.7-1.4-1-2.4-1c-1,0-1.9,0.3-2.5,1c-0.7,0.7-1,1.7-1,3.1c0,1.2,0.3,2.2,0.9,2.9c0.6,0.7,1.5,1,2.5,1c1.1,0,1.9-0.4,2.5-1.1
		C66.6,190,66.9,189,66.9,187.8z"/>
	<path fill="#FFFFFF" d="M80.5,187.7c0,1.6-0.5,3-1.4,4c-0.9,1-2.2,1.5-3.7,1.5c-1.6,0-2.8-0.5-3.7-1.5c-0.9-1-1.3-2.2-1.3-3.8
		c0-1.8,0.5-3.2,1.5-4.2c0.9-0.9,2.2-1.4,3.7-1.4c1.5,0,2.7,0.5,3.6,1.4S80.5,186,80.5,187.7z M78.8,187.8c0-1.3-0.3-2.3-0.9-3
		c-0.6-0.7-1.4-1-2.4-1c-1,0-1.9,0.3-2.5,1c-0.7,0.7-1,1.7-1,3.1c0,1.2,0.3,2.2,0.9,2.9c0.6,0.7,1.5,1,2.5,1c1.1,0,1.9-0.4,2.5-1.1
		C78.5,190,78.8,189,78.8,187.8z"/>
	<path fill="#FFFFFF" d="M91.6,192.9h-2.3l-4.6-5h0v5H83v-15.3h1.7v9.7h0l4.3-4.7h2.2l-4.8,5L91.6,192.9z"/>
	<path fill="#FFFFFF" d="M95,192c0,0.3-0.1,0.6-0.3,0.8c-0.2,0.2-0.5,0.3-0.8,0.3c-0.3,0-0.6-0.1-0.8-0.3c-0.2-0.2-0.3-0.5-0.3-0.8
		c0-0.3,0.1-0.6,0.3-0.8s0.5-0.3,0.8-0.3c0.3,0,0.6,0.1,0.8,0.3S95,191.7,95,192z"/>
	<path fill="#FFFFFF" d="M104.7,192.4c-0.8,0.5-1.7,0.7-2.8,0.7c-1.5,0-2.7-0.5-3.6-1.5c-0.9-1-1.3-2.2-1.3-3.7
		c0-1.7,0.5-3.1,1.5-4.1c1-1,2.3-1.6,3.9-1.6c0.9,0,1.7,0.2,2.4,0.5v1.7c-0.8-0.5-1.6-0.8-2.5-0.8c-1,0-1.9,0.4-2.6,1.1
		c-0.7,0.8-1,1.8-1,3c0,1.2,0.3,2.2,1,2.8c0.6,0.7,1.5,1,2.6,1c0.9,0,1.7-0.3,2.5-0.9V192.4z"/>
	<path fill="#FFFFFF" d="M116.6,187.7c0,1.6-0.5,3-1.4,4c-0.9,1-2.2,1.5-3.7,1.5c-1.6,0-2.8-0.5-3.7-1.5c-0.9-1-1.3-2.2-1.3-3.8
		c0-1.8,0.5-3.2,1.5-4.2c0.9-0.9,2.2-1.4,3.7-1.4c1.5,0,2.7,0.5,3.6,1.4S116.6,186,116.6,187.7z M114.9,187.8c0-1.3-0.3-2.3-0.9-3
		c-0.6-0.7-1.4-1-2.4-1c-1,0-1.9,0.3-2.5,1c-0.7,0.7-1,1.7-1,3.1c0,1.2,0.3,2.2,0.9,2.9c0.6,0.7,1.5,1,2.5,1c1.1,0,1.9-0.4,2.5-1.1
		C114.6,190,114.9,189,114.9,187.8z"/>
	<path fill="#FFFFFF" d="M133.8,192.9h-1.7V187c0-1.2-0.2-2-0.6-2.5c-0.4-0.5-0.9-0.7-1.7-0.7c-0.7,0-1.3,0.3-1.8,1
		c-0.5,0.6-0.7,1.4-0.7,2.3v5.9h-1.7v-6.1c0-2-0.8-3-2.3-3c-0.7,0-1.3,0.3-1.8,0.9c-0.5,0.6-0.7,1.4-0.7,2.4v5.9h-1.7v-10.3h1.7v1.6
		h0c0.7-1.3,1.8-1.9,3.2-1.9c0.7,0,1.3,0.2,1.9,0.6c0.5,0.4,0.9,0.9,1.1,1.5c0.8-1.4,1.9-2.1,3.4-2.1c2.3,0,3.4,1.4,3.4,4.2V192.9z"
		/>
</g>
<path fill="#FFFFFF" d="M127.3,92.3c-0.5,0.4-1,0.5-1.6,0.5c-0.6,0-1.1-0.2-1.5-0.5l-6.3-4.9v27.9H152c1.8,0,3.3-1.5,3.3-3.3V70.1
	L127.3,92.3z"/>
<path fill="#FFFFFF" d="M112.9,85L112.9,85l0-3.9l0,0V66.4v-3.1h0V43.9l-53.7,9.6v70.4l53.7,9.3v-19h0v-3.1V85z M96.4,92.1
	c-0.2,1.1-0.4,2.2-0.7,3.2c-0.3,1-0.7,2-1.2,2.8c-0.5,0.9-1,1.7-1.6,2.4c-0.6,0.7-1.2,1.4-1.9,1.9c-0.7,0.5-1.4,1-2.2,1.3
	c-0.8,0.3-1.6,0.6-2.4,0.7c-0.8,0.1-1.7,0.2-2.6,0.1c-0.9-0.1-1.7-0.2-2.5-0.4c-0.8-0.2-1.5-0.5-2.2-0.9c-0.7-0.4-1.3-0.9-1.9-1.4
	c-0.6-0.6-1.2-1.2-1.7-1.9c-0.5-0.7-1-1.5-1.4-2.3c-0.4-0.8-0.7-1.7-1-2.6c-0.3-0.9-0.5-1.9-0.6-2.9c-0.1-1-0.2-2.1-0.2-3.2
	c0-1.1,0.1-2.2,0.2-3.3c0.1-1,0.3-2,0.6-3c0.3-0.9,0.6-1.8,1-2.7c0.4-0.8,0.8-1.6,1.3-2.4c0.5-0.8,1.1-1.4,1.7-2
	c0.6-0.6,1.3-1.1,2-1.5c0.7-0.4,1.5-0.8,2.3-1c0.8-0.2,1.7-0.4,2.7-0.4c0.9-0.1,1.7,0,2.5,0.1c0.8,0.1,1.6,0.4,2.3,0.7
	c0.7,0.3,1.4,0.7,2.1,1.2c0.7,0.5,1.3,1.1,1.9,1.8c0.6,0.7,1.1,1.5,1.5,2.4c0.4,0.8,0.8,1.8,1.1,2.7c0.3,1,0.5,2,0.7,3.2
	c0.1,1.1,0.2,2.3,0.2,3.5C96.7,89.8,96.6,91,96.4,92.1z"/>
<path fill="#FFFFFF" d="M117.9,82.2l7.9,6.1l29.5-23.4c-0.2-1.6-1.6-2.9-3.2-2.9h-34.2V82.2z"/>
<path fill="#FFFFFF" d="M89.9,84.5c-0.1-0.6-0.3-1.2-0.5-1.8c-0.2-0.5-0.5-1-0.8-1.5c-0.3-0.4-0.6-0.8-0.9-1.1
	c-0.3-0.3-0.7-0.6-1.1-0.8c-0.4-0.2-0.8-0.3-1.2-0.4c-0.4-0.1-0.9-0.1-1.3-0.1c-0.5,0-1,0.1-1.4,0.2c-0.4,0.1-0.8,0.3-1.2,0.6
	c-0.4,0.2-0.7,0.6-1.1,0.9c-0.3,0.4-0.6,0.8-0.9,1.3c-0.3,0.5-0.5,0.9-0.7,1.5c-0.2,0.5-0.4,1.1-0.5,1.6c-0.1,0.6-0.2,1.2-0.3,1.8
	c-0.1,0.6-0.1,1.3-0.1,2c0,0.8,0,1.5,0.1,2.2c0.1,0.7,0.2,1.3,0.3,1.9c0.1,0.6,0.3,1.2,0.5,1.7c0.2,0.5,0.5,1,0.8,1.5
	c0.3,0.4,0.6,0.8,0.9,1.1c0.3,0.3,0.7,0.6,1,0.8c0.4,0.2,0.7,0.4,1.1,0.5c0.4,0.1,0.8,0.2,1.3,0.2c0.5,0,0.9,0,1.3-0.1
	c0.4-0.1,0.8-0.2,1.2-0.4c0.4-0.2,0.7-0.4,1.1-0.7c0.3-0.3,0.6-0.6,0.9-1.1c0.3-0.4,0.6-0.9,0.8-1.4c0.2-0.5,0.4-1.1,0.6-1.7
	c0.2-0.6,0.3-1.3,0.4-2c0.1-0.7,0.1-1.5,0.1-2.3c0-0.8,0-1.6-0.1-2.3C90.2,85.8,90.1,85.1,89.9,84.5z"/>
</svg>
