<?xml version="1.0" encoding="utf-8"?>
<!-- Generator: Adobe Illustrator 18.0.0, SVG Export Plug-In . SVG Version: 6.00 Build 0)  -->
<!DOCTYPE svg PUBLIC "-//W3C//DTD SVG 1.1//EN" "http://www.w3.org/Graphics/SVG/1.1/DTD/svg11.dtd">
<svg version="1.1" id="Layer_1" xmlns="http://www.w3.org/2000/svg" xmlns:xlink="http://www.w3.org/1999/xlink" x="0px" y="0px"
	 width="216px" height="216px" viewBox="0 0 216 216" enable-background="new 0 0 216 216" xml:space="preserve">
<g>
	<g>
		<rect fill="#21BBEE" width="216.3" height="216"/>
		<g enable-background="new    ">
			<path fill="#FFFFFF" d="M37.2,178.9l-4.4,15.5h-2.1L27.5,183c-0.1-0.5-0.2-1-0.2-1.6l0,0c-0.1,0.5-0.1,1.1-0.3,1.5l-3.2,11.4
				h-2.1l-4.5-15.5h2l3.3,11.9c0.1,0.5,0.2,1,0.3,1.6l0,0c0-0.4,0.1-0.9,0.3-1.6l3.4-11.9h1.7l3.3,12c0.1,0.4,0.2,0.9,0.3,1.4l0,0
				c0-0.4,0.1-0.9,0.3-1.5l3.1-12h2C37.2,178.7,37.2,178.9,37.2,178.9z"/>
			<path fill="#FFFFFF" d="M41.3,179.3c0,0.3-0.1,0.6-0.3,0.8s-0.5,0.3-0.8,0.3s-0.6-0.1-0.8-0.3s-0.3-0.5-0.3-0.8s0.1-0.6,0.3-0.8
				s0.5-0.3,0.8-0.3s0.6,0.1,0.8,0.3S41.3,179,41.3,179.3z M41,194.4h-1.8v-11.1H41V194.4z"/>
			<path fill="#FFFFFF" d="M53.7,194.4h-1.8v-6.3c0-2.3-0.9-3.5-2.6-3.5c-0.9,0-1.6,0.3-2.2,1s-0.9,1.5-0.9,2.5v6.3h-1.8v-11.1h1.8
				v1.8l0,0c0.8-1.4,2-2.1,3.6-2.1c1.2,0,2.1,0.4,2.8,1.2s1,1.9,1,3.4v6.8L53.7,194.4L53.7,194.4z"/>
			<path fill="#FFFFFF" d="M66.3,194.4h-1.8v-1.9l0,0c-0.8,1.4-2.1,2.2-3.8,2.2c-1.4,0-2.4-0.5-3.3-1.5c-0.9-1-1.3-2.4-1.3-4.1
				c0-1.9,0.5-3.3,1.4-4.4c0.9-1.1,2.1-1.7,3.7-1.7c1.5,0,2.6,0.6,3.3,1.8l0,0V178h1.8C66.3,178,66.3,194.4,66.3,194.4z M64.6,189.4
				v-1.6c0-0.9-0.3-1.6-0.9-2.2c-0.6-0.6-1.3-1-2.3-1c-1.1,0-1.9,0.4-2.5,1.2s-0.9,1.9-0.9,3.3c0,1.3,0.3,2.4,1,3.1
				c0.6,0.7,1.4,1,2.3,1c1,0,1.8-0.4,2.4-1.1C64.3,191.4,64.6,190.5,64.6,189.4z"/>
			<path fill="#FFFFFF" d="M79.9,188.8c0,1.8-0.5,3.2-1.5,4.3s-2.3,1.6-4,1.6s-3-0.5-3.9-1.6c-0.9-1-1.4-2.4-1.4-4.1
				c0-1.9,0.5-3.4,1.6-4.5c1-1,2.3-1.5,4-1.5c1.6,0,2.9,0.5,3.8,1.5S79.9,187,79.9,188.8z M78.1,188.9c0-1.4-0.3-2.5-1-3.3
				c-0.6-0.7-1.5-1.1-2.6-1.1s-2,0.4-2.6,1.1c-0.7,0.8-1,1.9-1,3.3c0,1.3,0.3,2.4,1,3.1s1.6,1.1,2.7,1.1c1.2,0,2-0.4,2.7-1.1
				C77.8,191.3,78.1,190.3,78.1,188.9z"/>
			<path fill="#FFFFFF" d="M96.5,183.3l-3.3,11.1h-1.8l-2.3-7.9c-0.1-0.3-0.1-0.6-0.2-1l0,0c0,0.3-0.1,0.6-0.2,1l-2.5,8h-1.8
				l-3.3-11.1h1.8l2.3,8.3c0.1,0.3,0.1,0.6,0.2,1h0.1c0-0.3,0.1-0.7,0.2-1l2.5-8.3h1.6l2.3,8.4c0.1,0.3,0.1,0.6,0.2,1h0.1
				c0-0.3,0.1-0.6,0.2-1l2.2-8.4h1.7L96.5,183.3L96.5,183.3z"/>
			<path fill="#FFFFFF" d="M104.5,191.5c0,0.9-0.3,1.7-1,2.3c-0.7,0.7-1.7,1-3,1c-1,0-2-0.2-2.7-0.7v-1.9c0.9,0.7,1.8,1.1,2.9,1.1
				c1.4,0,2.1-0.5,2.1-1.6c0-0.4-0.2-0.8-0.5-1.1s-0.9-0.6-1.8-1s-1.6-0.8-2-1.3c-0.5-0.5-0.7-1.2-0.7-2c0-0.9,0.4-1.7,1.1-2.3
				s1.7-0.9,2.8-0.9c0.9,0,1.7,0.2,2.4,0.5v1.8c-0.7-0.5-1.6-0.8-2.5-0.8c-0.6,0-1.1,0.1-1.4,0.4c-0.4,0.3-0.5,0.7-0.5,1.1
				c0,0.5,0.1,0.9,0.4,1.1c0.3,0.3,0.8,0.6,1.7,0.9c0.9,0.4,1.6,0.8,2,1.2C104.2,189.9,104.5,190.6,104.5,191.5z"/>
		</g>
	</g>
	<g>
		<polygon fill="#FFFFFF" points="103,93.4 156.2,93.4 156.2,46.1 103,53.6 		"/>
		<polygon fill="#FFFFFF" points="100.8,93.4 100.8,53.9 60.1,59.6 60.1,93.4 		"/>
		<polygon fill="#FFFFFF" points="100.8,95.6 60.1,95.6 60.1,129.5 100.8,135.2 		"/>
		<polygon fill="#FFFFFF" points="103,95.6 103,135.5 156.2,143 156.2,95.6 		"/>
	</g>
</g>
</svg>
