<?xml version="1.0" encoding="utf-8"?>
<!-- Generator: Adobe Illustrator 16.0.0, SVG Export Plug-In . SVG Version: 6.00 Build 0)  -->
<!DOCTYPE svg PUBLIC "-//W3C//DTD SVG 1.1//EN" "http://www.w3.org/Graphics/SVG/1.1/DTD/svg11.dtd">
<svg version="1.1" id="Layer_1" xmlns="http://www.w3.org/2000/svg" xmlns:xlink="http://www.w3.org/1999/xlink" x="0px" y="0px"
	 width="216px" height="216px" viewBox="0 0 216 216" enable-background="new 0 0 216 216" xml:space="preserve">
<g display="none">
	<rect display="inline" fill="#2B589B" width="216" height="216"/>
	<text transform="matrix(1 0 0 1 17.5791 194.7949)" display="inline" fill="#FFFFFF" font-family="'Segoe'" font-size="22">Word Online</text>
	<g display="inline">
		<path fill="#FFFFFF" d="M152.5,56.6h-33.7v10.2h27.5v4.1h-27.5V76h27.5v4h-27.5v5.1h27.5v4.1h-27.5v5.1h27.5v4.1h-27.5v5.1h27.5
			v4.1h-27.5v5.1h27.5v4.1h-27.5v9.2h33.7c1.1,0,1.9-0.8,1.9-1.9V58.7C154.4,57.6,153.5,56.6,152.5,56.6z"/>
		<path fill="#FFFFFF" d="M63.9,55.6v71.2l52.9,9.2V46.5L63.9,55.6z M101.4,107.8l-7-0.4L89.9,86c-0.1-0.3-0.1-0.5-0.2-0.8
			c0-0.3-0.1-0.6-0.1-0.9c0-0.3-0.1-0.6-0.1-1c0-0.3,0-0.7-0.1-1h-0.1c0,0.4-0.1,0.7-0.1,1.1c0,0.3-0.1,0.7-0.1,1
			c0,0.3-0.1,0.6-0.1,0.9c0,0.3-0.1,0.5-0.1,0.8l-4.4,20.8l-6.4-0.4l-6.2-31.1l5.8-0.4l3.4,21c0,0.2,0.1,0.5,0.1,0.7
			c0,0.3,0.1,0.5,0.1,0.8s0.1,0.6,0.1,1c0,0.3,0,0.7,0.1,1.1h0.1c0-0.3,0-0.6,0.1-0.9c0-0.3,0.1-0.6,0.1-0.9c0-0.3,0.1-0.6,0.1-0.9
			c0.1-0.3,0.1-0.6,0.2-1l4.6-21.5l6.4-0.4l4.5,22.5c0,0.2,0.1,0.4,0.1,0.7c0,0.3,0.1,0.5,0.1,0.8s0.1,0.6,0.1,1s0.1,0.7,0.1,1.1
			h0.1c0-0.3,0-0.7,0.1-1c0-0.3,0.1-0.6,0.1-1c0-0.3,0.1-0.6,0.1-0.9c0-0.3,0.1-0.6,0.2-0.9l3.9-22.9l6.7-0.4L101.4,107.8z"/>
	</g>
</g>
<g display="none">
	<g display="inline">
		<rect fill="#21BBEE" width="216.3" height="214.9"/>
		<text transform="matrix(0.9907 0 0 1 16.8989 194.4219)" fill="#FFFFFF" font-family="'Segoe'" font-size="22.2067">Windows</text>
	</g>
	<g display="inline">
		<polygon fill="#FFFFFF" points="103,93.4 156.2,93.4 156.2,46.1 103,53.6 		"/>
		<polygon fill="#FFFFFF" points="100.8,93.4 100.8,53.9 60.1,59.6 60.1,93.4 		"/>
		<polygon fill="#FFFFFF" points="100.8,95.6 60.1,95.6 60.1,129.5 100.8,135.2 		"/>
		<polygon fill="#FFFFFF" points="103,95.6 103,135.5 156.2,143 156.2,95.6 		"/>
	</g>
</g>
<g display="none">
	<rect display="inline" fill="#14A2DD" width="216" height="216"/>
	<text transform="matrix(1 0 0 1 21.1328 195.0566)" display="inline" fill="#FFFFFF" font-family="'Segoe'" font-size="22">Skype</text>
	<g display="inline">
		<path fill="#FFFFFF" d="M155.1,99.4c0.5-2.7,0.7-5.4,0.7-8.2c0-26.1-21.2-47.3-47.3-47.3c-2.8,0-5.5,0.2-8.2,0.7
			c-4.1-2.4-8.9-3.7-13.9-3.7c-15.5,0-28.1,12.6-28.1,28.1c0,5.1,1.3,9.8,3.7,13.9c-0.5,2.7-0.7,5.4-0.7,8.2
			c0,26.1,21.2,47.3,47.3,47.3c2.801,0,5.5-0.2,8.2-0.7c4.101,2.399,8.9,3.7,13.9,3.7c15.5,0,28.1-12.602,28.1-28.102
			C158.8,108.2,157.5,103.5,155.1,99.4"/>
		<path fill="#14A2DD" d="M108.8,121.4c-16.8,0-24.5-8.5-24.5-14.7c0-3.2,2.5-5.4,5.7-5.4c7.2,0,5.3,10.7,18.7,10.7
			c6.899,0,10.899-4.1,10.899-8c0-2.3-1.301-4.9-5.899-6l-14.9-3.8c-12-3-14.1-9.7-14.1-15.9c0-12.8,11.8-17.4,23-17.4
			c10.3,0,22.6,5.7,22.6,13.4c0,3.3-2.8,5.1-6,5.1c-6.1,0-5.1-8.6-17.5-8.6c-6.1,0-9.4,2.9-9.4,6.9s4.7,5.4,8.9,6.3l11,2.5
			c12.101,2.7,15.3,9.8,15.3,16.5C132.8,113.4,124.7,121.4,108.8,121.4"/>
	</g>
</g>
<g display="none">
	<rect display="inline" fill="#DC5B26" width="216" height="216"/>
	<text transform="matrix(1 0 0 1 19.731 194.4248)" display="inline" fill="#FFFFFF" font-family="'Segoe'" font-size="22.1023">PowerPoint Online</text>
	<g display="inline">
		<path fill="#FFFFFF" d="M155.1,58.2h-34.8V123.6h34.8c1.301,0,2.102-0.8,2.102-2.1V60.3C157.2,59,156.4,58.2,155.1,58.2z"/>
		<g>
			<rect x="119.2" y="109.9" fill="#DC5B26" width="28.5" height="4.199"/>
		</g>
		<g>
			<rect x="119.2" y="100.4" fill="#DC5B26" width="28.5" height="4.2"/>
		</g>
		<path fill="#DC5B26" d="M126,68.8c-7,0-11.2,5.7-11.2,12.7s6.4,12.4,13.4,12.4S141.6,92,141.6,81H126V68.8z"/>
		<path fill="#DC5B26" d="M129,66.7V78h14.6C143.6,73,138,66.7,129,66.7z"/>
		<polygon fill="#FFFFFF" points="118.2,44.5 118.2,137.3 63.3,127.9 63.3,54 		"/>
		<path fill="#DC5B26" d="M87.5,89.7V79.1l2.7-0.3c0.9,0,1.7,0.1,2.4,0.3c0.7,0.2,1.3,0.6,1.8,1c0.5,0.5,0.8,1.1,1.1,1.8
			c0.2,0.7,0.4,1.6,0.4,2.5c0,1-0.1,1.8-0.4,2.6c-0.2,0.7-0.6,1.4-1.1,1.9s-1.1,0.9-1.8,1.1c-0.7,0.2-1.5,0.4-2.4,0.4L88,90
			L87.5,89.7z M91.4,72.4L81.2,73v35.5l6.3,0.5V96.4l3.3,0.2c1,0,1.9,0,2.7-0.2c0.9-0.1,1.7-0.3,2.5-0.6c0.8-0.3,1.5-0.7,2.2-1.1
			c0.7-0.5,1.3-1,1.9-1.6s1.1-1.2,1.5-1.9c0.4-0.7,0.8-1.4,1.1-2.2c0.3-0.8,0.5-1.6,0.6-2.4c0.1-0.9,0.2-1.8,0.2-2.7
			c0-2-0.3-3.8-0.8-5.3s-1.3-2.7-2.3-3.7s-2.3-1.6-3.8-2.1C95.1,72.4,93.4,72.2,91.4,72.4"/>
	</g>
</g>
<g>
	<rect fill="#D24927" width="216" height="216"/>
	<text transform="matrix(1 0 0 1 20.4443 196.9766)" display="none" fill="#FFFFFF" font-family="'MicrosoftYaHei'" font-size="23">人脉</text>
	<g>
		<path fill="#FFFFFF" d="M20.804,198.066c6.529-3.773,9.98-10.393,10.354-19.855h1.977c-0.083,1.602-0.24,3.129-0.472,4.582
			c1.857,7.486,5.346,12.414,10.467,14.779c-0.629,0.689-1.183,1.34-1.662,1.954c-4.447-2.516-7.618-6.967-9.512-13.353
			c-1.64,6.169-4.885,10.702-9.737,13.6C21.814,199.219,21.343,198.65,20.804,198.066z"/>
		<path fill="#FFFFFF" d="M44.413,179.222h5.885v18.059c0,1.542-0.726,2.313-2.179,2.313c-0.524,0-1.13-0.016-1.819-0.045
			c-0.045-0.51-0.135-1.049-0.27-1.617c0.719,0.09,1.28,0.135,1.685,0.135c0.674,0,1.011-0.344,1.011-1.033v-5.054h-2.74
			c0.007,3.556-0.591,6.251-1.797,8.086c-0.314-0.435-0.741-0.898-1.28-1.393c1.003-1.572,1.505-3.901,1.505-6.985V179.222z
			 M48.725,180.704h-2.74v4.2h2.74V180.704z M45.985,190.542h2.74v-4.2h-2.74V190.542z M51.106,187.757v-1.572h4.425v1.46
			c-0.494,4.223-1.797,7.576-3.908,10.063c-0.344-0.539-0.749-1.056-1.213-1.55c1.977-2.081,3.137-4.882,3.481-8.4H51.106z
			 M63.1,183.557l1.482,1.078c-1.228,1.467-2.666,2.949-4.313,4.447c1.25,2.973,2.95,5.24,5.099,6.806
			c-0.479,0.449-0.943,0.974-1.393,1.572c-2.313-1.887-4.073-4.683-5.278-8.39v7.783c0,1.857-0.846,2.785-2.538,2.785
			c-0.674,0-1.453-0.008-2.336-0.022c-0.03-0.644-0.165-1.288-0.404-1.932c0.704,0.149,1.475,0.225,2.313,0.225
			c0.869,0,1.303-0.442,1.303-1.325v-13.207H51.69v-1.572h7.008v2.123c0.27,1.265,0.591,2.451,0.966,3.56
			C60.951,186.215,62.097,184.904,63.1,183.557z M54.992,177.717c2.201,0.764,4.26,1.572,6.177,2.426l-0.876,1.595
			c-2.082-1.048-4.11-1.917-6.087-2.605L54.992,177.717z"/>
	</g>
	<g display="none" enable-background="new    ">
		<path display="inline" fill="#FFFFFF" d="M26.2,184c0,1.4-0.5,2.6-1.4,3.5c-1,1-2.4,1.5-4.2,1.5h-2v5.8h-1.8V179.4H21
			c1.7,0,2.9,0.398,3.9,1.199C25.8,181.4,26.2,182.5,26.2,184z M24.3,184.1c0-2-1.2-3.1-3.6-3.1h-2.1v6.3h1.9
			c1.2,0,2.2-0.3,2.9-0.899C24,185.9,24.3,185.1,24.3,184.1z"/>
		<path display="inline" fill="#FFFFFF" d="M36.8,189.7H29c0,1.2,0.4,2.2,1,2.8c0.6,0.7,1.5,1,2.6,1c1.2,0,2.4-0.4,3.4-1.2v1.601
			c-1,0.699-2.2,1.101-3.8,1.101c-1.5,0-2.7-0.5-3.6-1.399c-0.9-1-1.4-2.399-1.4-4.301c0-1.8,0.5-3.199,1.5-4.3c1-1,2.1-1.5,3.5-1.5
			c1.5,0,2.6,0.5,3.4,1.5c0.7,0.899,1.1,2.2,1.1,3.8v0.9L36.8,189.7L36.8,189.7z M35,188.2c0-1-0.3-1.8-0.7-2.3
			c-0.5-0.602-1.2-0.9-2-0.9c-0.8,0-1.5,0.3-2.1,0.9c-0.6,0.6-0.9,1.398-1.1,2.3H35z"/>
		<path display="inline" fill="#FFFFFF" d="M49.4,189.2c0,1.8-0.5,3.2-1.5,4.2s-2.3,1.6-4,1.6c-1.7,0-3-0.5-3.9-1.6
			c-0.9-1-1.4-2.4-1.4-4c0-1.9,0.5-3.4,1.6-4.4c1-1,2.3-1.5,4-1.5c1.6,0,2.9,0.5,3.8,1.5S49.4,187.4,49.4,189.2z M47.6,189.3
			c0-1.399-0.3-2.5-1-3.2C46,185.4,45.1,185,44,185s-2,0.4-2.6,1.1c-0.7,0.801-1,1.9-1,3.301c0,1.301,0.3,2.301,1,3.101
			c0.7,0.7,1.6,1.101,2.7,1.101c1.2,0,2-0.399,2.7-1.101C47.3,191.7,47.6,190.6,47.6,189.3z"/>
		<path display="inline" fill="#FFFFFF" d="M62.2,188.9c0,1.8-0.4,3.199-1.3,4.398c-0.9,1.2-2.1,1.801-3.7,1.801
			c-1.4,0-2.5-0.601-3.3-1.801l0,0v6.602h-1.8V183.8h1.8v1.9l0,0c0.9-1.5,2.1-2.2,3.8-2.2c1.5,0,2.6,0.5,3.4,1.6
			C61.9,186.1,62.2,187.3,62.2,188.9z M60.4,188.9c0-1.2-0.3-2.2-0.8-2.9c-0.6-0.7-1.3-1-2.3-1c-1.1,0-1.9,0.4-2.5,1.1
			c-0.6,0.7-0.9,1.602-0.9,2.602v1.5c0,0.898,0.3,1.6,0.8,2.3c0.6,0.7,1.4,1,2.3,1c1,0,1.9-0.399,2.5-1.2
			C60.1,191.501,60.4,190.4,60.4,188.9z"/>
		<path display="inline" fill="#FFFFFF" d="M66.7,194.8H65v-16.3h1.8v16.3H66.7z"/>
		<path display="inline" fill="#FFFFFF" d="M79,189.7h-7.8c0,1.2,0.4,2.2,1,2.8c0.6,0.7,1.5,1,2.6,1c1.2,0,2.4-0.4,3.4-1.2v1.601
			c-1,0.699-2.2,1.101-3.8,1.101c-1.5,0-2.7-0.5-3.6-1.399c-0.9-1-1.4-2.399-1.4-4.301c0-1.8,0.5-3.199,1.5-4.3c1-1,2.1-1.5,3.5-1.5
			c1.5,0,2.6,0.5,3.4,1.5c0.7,0.899,1.1,2.2,1.1,3.8v0.9L79,189.7L79,189.7z M77.2,188.2c0-1-0.3-1.8-0.7-2.3
			c-0.5-0.602-1.2-0.9-2-0.9s-1.5,0.3-2.1,0.9c-0.6,0.6-0.9,1.398-1.1,2.3H77.2z"/>
	</g>
	<g id="people_icon_19_">
		<g>
			<path fill="#FFFFFF" d="M113.1,68.9c1.5,4.9,4.4,8.5,8.9,10.3c1.2,0.5,2.5,0.6,4,0.8c0.5,0,1,0,1.6-0.1
				c2.5-0.4,4.102-0.8,5.9-1.9c4.1-2.5,6.7-6.1,8-11.3c0.7-2.5,0.8-6.3,0.1-8.9c-1.699-6.6-6.1-12.3-14.5-12.1
				c-0.398,0-0.898,0.1-1.3,0.1c-1,0.2-1.899,0.4-2.8,0.7c-3.9,1.5-6.9,4.5-8.6,8.2c-0.7,1.6-1.301,3.2-1.7,5.1
				c-0.4,1.7-0.5,4.2-0.2,6.1C112.7,67,112.8,67.9,113.1,68.9z M74,84.9c1.7,1,5.4,2.3,8.3,1.8c1-0.2,2-0.3,2.9-0.6
				c5.2-1.6,8.2-5.4,10.1-10.4c1.4-3.5,1.2-9,0.1-12.6c-2.1-6.7-7.5-13.2-16.4-13c-0.6,0.1-1.2,0.1-1.9,0.2c-1.1,0.2-2.1,0.5-3,0.9
				c-4.6,2-7.6,5.9-9.1,11c-0.3,1-0.4,2.2-0.6,3.3c-0.4,2.4,0,5.3,0.6,7.2C66.6,78.5,69.5,82.3,74,84.9z M157.6,107.6
				c-0.398-2.4-0.398-4.8-0.8-7.1c-1-5.7-1.2-11.9-3.899-15.8c-1.199-1.7-2.899-2.6-4.899-3.5c-1.601-0.7-3.101-1.4-4.899-1.9
				c-0.5-0.1-1.101-0.3-1.699-0.2c-1.7,0.3-2.602,1.7-3.801,2.5c-2.301,1.7-4.801,3-8.101,3.9c-1.101,0.3-2.7,0.6-4.2,0.4
				c-1-0.1-1.898-0.2-2.8-0.4c-2.601-0.6-4.7-1.8-6.7-3.1c-0.8-0.6-1.5-1.1-2.3-1.7c-0.7-0.6-1.3-1.3-2.399-1.5
				c-1.199-0.2-2.5,0.4-3.301,0.7c-1.5,0.6-2.9,1.2-4.3,1.8c-0.7,0.4-1.3,0.8-2,1.1l-0.1,0.1c1.4,0.3,2.8,1.2,4,1.7
				c3.4,1.5,6.1,3.5,8,6.5c1.601,2.5,2.399,5.7,3.199,9.1c0.2,1.4,0.5,2.9,0.7,4.3c0.601,3.2,1,6.6,1.4,9.9H158.1
				C158.1,112,157.9,109.7,157.6,107.6z M112.9,114c-0.602-3.2-0.602-6.5-1.2-9.6c-0.9-4.6-1.3-8.8-3.6-11.9
				c-1.2-1.6-3.1-2.6-5.1-3.5c-1.6-0.7-3.2-1.5-5.1-2c-0.5-0.1-1.2-0.4-2-0.2c-1.5,0.3-2.1,1.1-3.1,1.8c-0.8,0.6-1.5,1.1-2.3,1.7
				c-1.9,1.2-3.9,2.2-6.4,2.8c-0.8,0.2-1.7,0.2-2.6,0.3c-1.2,0.2-2.7-0.1-3.6-0.4c-3.2-0.8-5.6-2.2-7.9-3.9
				c-1.2-0.9-2.1-2.2-3.9-2.5c-0.7-0.1-1.4,0.1-2,0.2c-1.9,0.5-3.4,1.2-5,1.9c-2.1,0.9-4,2-5.3,3.8c-2.3,3.3-2.8,8.2-3.7,13
				c-0.1,1.2-0.3,2.4-0.4,3.7c-0.4,2.2-0.4,4.5-0.7,6.8c-0.1,1.1-0.2,2.1-0.3,3.2c-0.2,1.3-0.3,2.7-0.3,4h65.3
				c0-1.7-0.101-3.5-0.4-5.2C113.2,116.8,113.1,115.4,112.9,114z"/>
		</g>
	</g>
</g>
</svg>
